<svg width="284" height="138" viewBox="0 0 284 138" fill="none" xmlns="http://www.w3.org/2000/svg">
<path d="M0.819972 81.18C1.14797 88.8334 1.47597 96.4867 1.80397 104.14C2.24131 111.793 2.56931 119.447 2.78797 127.1V127.92L2.29597 127.428V126.28C1.74931 116.44 1.20264 106.764 0.655973 97.252C0.218639 87.6307 -2.7597e-05 77.9 -2.7597e-05 68.06V49.528C-2.7597e-05 46.576 -2.7597e-05 43.6787 -2.7597e-05 40.836C0.109306 37.884 0.218639 34.932 0.327972 31.98C0.437305 28.5907 0.710639 25.3107 1.14797 22.14C1.58531 18.86 1.80397 15.4707 1.80397 11.972H2.45997C3.22531 11.972 3.88131 11.9173 4.42797 11.808C4.97464 11.6987 5.41197 11.644 5.73997 11.644C6.83331 11.644 7.48931 12.3547 7.70797 13.776C7.92664 15.1973 8.03597 16.2907 8.03597 17.056L7.87197 20.5H9.83997C9.94931 19.844 10.1133 18.8053 10.332 17.384C10.66 15.8533 11.0973 14.3227 11.644 12.792C12.1906 11.2613 12.792 9.94935 13.448 8.85602C14.2133 7.65335 15.088 7.05201 16.072 7.05201C17.1653 7.05201 17.9853 8.03601 18.532 10.004C19.188 11.972 19.68 14.3227 20.008 17.056C20.336 19.68 20.5 22.4133 20.5 25.256C20.6093 27.9893 20.664 30.176 20.664 31.816V33.784C20.664 46.3573 20.7733 58.9307 20.992 71.504C21.2106 84.0774 21.32 96.6507 21.32 109.224C21.32 110.208 21.2653 111.247 21.156 112.34C21.156 113.324 21.156 114.308 21.156 115.292C21.156 115.839 21.156 116.331 21.156 116.768C21.2653 117.205 21.32 117.697 21.32 118.244H22.96C23.944 118.244 24.928 118.299 25.912 118.408C26.896 118.408 27.88 118.408 28.864 118.408C35.752 118.408 42.5306 118.08 49.2 117.424C55.9786 116.659 62.812 116.276 69.7 116.276H70.356C71.4493 116.276 72.7613 116.44 74.292 116.768C75.8226 116.987 76.588 117.752 76.588 119.064V119.392C70.7933 119.392 65.108 119.611 59.532 120.048C53.956 120.376 48.2706 120.813 42.476 121.36C46.74 121.141 50.9493 120.868 55.104 120.54C59.368 120.212 63.632 120.048 67.896 120.048C69.3173 120.048 70.684 120.103 71.996 120.212C73.308 120.212 74.6746 120.267 76.096 120.376L75.44 122.344C76.096 122.453 76.9706 122.617 78.064 122.836C79.1573 122.945 80.196 123.219 81.18 123.656C82.2733 124.093 83.2026 124.64 83.968 125.296C84.7333 125.843 85.116 126.553 85.116 127.428C85.116 128.959 84.4053 129.997 82.984 130.544C81.5626 131.2 80.2506 131.801 79.048 132.348C77.408 131.801 75.6586 131.473 73.8 131.364C72.0506 131.364 70.3013 131.364 68.552 131.364C64.7253 131.364 60.9533 131.528 57.236 131.856C53.7373 132.184 50.184 132.512 46.576 132.84C49.2 132.731 51.7146 132.621 54.12 132.512C56.8533 132.403 59.5866 132.348 62.32 132.348C64.7253 132.348 67.076 132.403 69.372 132.512C71.7773 132.621 74.1826 132.895 76.588 133.332C74.62 134.207 72.16 134.863 69.208 135.3C66.3653 135.737 63.3586 136.065 60.188 136.284C57.1266 136.503 54.0653 136.612 51.004 136.612C47.9426 136.721 45.264 136.831 42.968 136.94L41.492 135.3C39.0866 135.847 36.6813 136.175 34.276 136.284C31.8706 136.503 29.4106 136.612 26.896 136.612C24.272 136.612 21.648 136.503 19.024 136.284C16.4 136.065 13.8306 135.737 11.316 135.3C10.1133 133.988 8.91064 132.676 7.70797 131.364C6.50531 130.161 5.19331 128.959 3.77197 127.756C3.77197 119.884 3.55331 112.121 3.11597 104.468C2.78797 96.8147 2.35064 89.052 1.80397 81.18H0.819972ZM35.752 133.66C33.128 133.769 30.3946 133.824 27.552 133.824C24.1626 133.824 20.992 133.715 18.04 133.496C15.088 133.277 13.0106 132.895 11.808 132.348L6.88797 127.592L5.41197 108.24V111.848C5.41197 114.363 5.57597 116.877 5.90397 119.392C6.23197 121.907 6.39597 124.421 6.39597 126.936V127.92C7.27064 128.795 8.09064 129.669 8.85597 130.544C9.73064 131.419 10.5506 132.348 11.316 133.332H12.464C14.8693 133.332 17.22 133.441 19.516 133.66C21.9213 133.988 24.3266 134.152 26.732 134.152C29.2466 134.152 31.7066 134.043 34.112 133.824C34.9866 133.824 35.916 133.769 36.9 133.66H35.752ZM21.812 122.18C22.3586 122.289 22.9053 122.399 23.452 122.508C24.108 122.508 24.764 122.508 25.42 122.508C28.2626 122.508 31.1053 122.453 33.948 122.344C36.7906 122.235 39.6333 121.907 42.476 121.36C38.9773 121.579 35.5333 121.688 32.144 121.688C28.7546 121.688 25.3106 121.743 21.812 121.852V122.18ZM10.824 136.448C12.6826 136.995 14.596 137.323 16.564 137.432C18.6413 137.651 20.7733 137.76 22.96 137.76C24.272 137.76 25.5293 137.705 26.732 137.596C27.8253 137.596 28.864 137.596 29.848 137.596C29.192 137.705 28.4266 137.76 27.552 137.76C26.6773 137.869 25.8026 137.924 24.928 137.924H21.648C20.336 137.924 18.9693 137.869 17.548 137.76C16.236 137.651 14.924 137.541 13.612 137.432C12.4093 137.323 11.5346 137.159 10.988 136.94C10.66 136.612 10.1133 136.011 9.34797 135.136C8.58264 134.371 7.76264 133.551 6.88797 132.676C6.01331 131.801 5.19331 130.927 4.42797 130.052C3.77197 129.287 3.38931 128.795 3.27997 128.576L10.824 136.448ZM17.548 121.524L13.94 120.868C14.596 121.087 15.58 121.524 16.892 122.18C18.204 122.727 19.188 123.055 19.844 123.164L19.352 121.36L17.548 121.524ZM105.973 5.08402C108.487 5.08402 110.947 4.92001 113.353 4.59201C115.867 4.15468 118.382 3.93601 120.897 3.93601C123.63 3.93601 126.309 4.10001 128.933 4.42801C131.666 4.64668 134.399 4.86535 137.133 5.08402C133.962 4.53735 130.791 4.20935 127.621 4.10001C124.45 3.88135 121.279 3.77201 118.109 3.77201C116.141 3.77201 114.173 3.82668 112.205 3.93601C110.346 3.93601 108.433 3.99068 106.465 4.10001C107.339 2.67868 108.597 1.69468 110.237 1.14802C111.877 0.601345 113.462 0.328009 114.993 0.328009H115.813L119.913 0.492016L120.569 2.13201C121.443 1.91334 122.263 1.80401 123.029 1.80401H125.653C128.277 1.80401 130.901 2.02268 133.525 2.46001C136.149 2.78801 138.882 2.95201 141.725 2.95201H143.693C144.349 2.95201 145.059 2.84268 145.825 2.62402L146.153 1.80401C150.417 2.02268 154.735 2.13201 159.109 2.13201C160.749 2.13201 162.17 2.46001 163.373 3.11601C164.685 3.77201 166.106 4.10001 167.637 4.10001V7.87201C167.637 8.52801 167.527 9.12935 167.309 9.67602C167.09 10.1133 166.707 10.332 166.161 10.332L165.177 10.168V11.644C166.27 12.4093 167.199 13.3933 167.965 14.596C168.73 15.7987 169.113 17.056 169.113 18.368C169.113 19.352 168.839 20.1173 168.293 20.664C167.855 21.2107 167.254 21.648 166.489 21.976C165.723 22.304 164.903 22.5227 164.029 22.632C163.154 22.632 162.334 22.632 161.569 22.632C154.681 22.632 147.574 22.304 140.249 21.648C132.923 20.8827 125.653 19.8987 118.437 18.696L115.321 19.516C115.43 19.9533 115.539 20.992 115.649 22.632C115.867 24.1627 116.086 26.076 116.305 28.372C116.523 30.5587 116.742 32.9093 116.961 35.424C117.289 37.9387 117.562 40.2893 117.781 42.476C117.999 44.5533 118.163 46.3573 118.273 47.888C118.382 49.3093 118.437 50.0747 118.437 50.184H124.997V51.824C126.965 51.2773 128.659 51.004 130.081 51.004C131.83 51.004 133.525 51.168 135.165 51.496C136.805 51.824 138.609 51.988 140.577 51.988C141.451 51.988 142.271 51.9334 143.037 51.824C143.911 51.7147 144.786 51.5507 145.661 51.332V50.184C144.021 50.2933 142.381 50.4027 140.741 50.512C139.101 50.512 137.461 50.512 135.821 50.512C134.727 50.512 133.634 50.512 132.541 50.512C131.557 50.4027 130.573 50.2933 129.589 50.184C134.181 50.184 138.663 50.02 143.037 49.692C147.519 49.364 152.057 49.2 156.649 49.2C158.507 49.2 160.202 49.692 161.733 50.676C163.263 51.66 164.029 53.1907 164.029 55.268C164.029 55.8147 163.919 56.3067 163.701 56.744C163.482 57.1813 163.099 57.4 162.553 57.4L161.569 57.236V58.712C162.662 59.5867 163.537 60.68 164.193 61.992C164.849 63.1947 165.177 64.452 165.177 65.764C165.177 66.8573 164.63 67.732 163.537 68.388C162.553 69.044 161.295 69.5907 159.765 70.028C158.234 70.356 156.485 70.5747 154.517 70.684C152.658 70.7933 150.909 70.848 149.269 70.848C144.458 70.848 139.975 70.4653 135.821 69.7C131.775 68.8253 127.675 68.388 123.521 68.388C122.865 68.388 121.99 68.4974 120.897 68.716C121.225 72.324 121.389 75.9867 121.389 79.704C121.389 84.7334 121.225 89.8174 120.897 94.956C120.569 99.9854 120.405 105.015 120.405 110.044C120.405 110.809 120.459 111.793 120.569 112.996C120.678 114.199 120.733 115.401 120.733 116.604C120.733 118.135 120.514 119.501 120.077 120.704C119.749 121.907 118.874 122.508 117.453 122.508V78.884C117.125 82.164 116.906 85.444 116.797 88.724C116.797 91.8947 116.797 95.0654 116.797 98.236V115.292C116.797 117.588 116.687 119.993 116.469 122.508L114.009 122.016V124.968C113.571 125.733 112.97 126.444 112.205 127.1C111.549 127.647 110.783 127.92 109.909 127.92C108.815 127.92 107.941 127.701 107.285 127.264C106.629 126.717 106.082 126.061 105.645 125.296C105.317 124.531 105.098 123.711 104.989 122.836C104.879 121.852 104.825 120.977 104.825 120.212C104.825 115.511 105.043 110.755 105.481 105.944C105.918 101.133 106.137 96.3227 106.137 91.512C106.137 88.56 105.973 85.608 105.645 82.656C105.317 79.704 104.934 76.752 104.497 73.8C104.606 78.392 104.715 82.9293 104.825 87.412C105.043 91.7854 105.153 96.2134 105.153 100.696C105.153 104.523 105.043 108.295 104.825 112.012C104.606 115.62 104.169 119.283 103.513 123C102.091 121.251 101.381 119.392 101.381 117.424C101.381 114.909 101.435 112.34 101.545 109.716C101.763 107.092 101.873 104.523 101.873 102.008H104.005C103.349 98.4 102.966 94.792 102.857 91.184L102.529 80.196C102.419 76.4787 102.255 72.816 102.037 69.208C101.818 65.4907 101.271 61.828 100.397 58.22L99.4128 58.712C100.943 71.6133 101.763 84.624 101.873 97.744C101.545 87.248 100.779 76.8614 99.5768 66.584C98.3741 55.6507 97.3355 44.6627 96.4608 33.62C96.2421 33.0733 96.0781 32.472 95.9688 31.816C95.9688 31.0507 95.9688 30.34 95.9688 29.684C95.9688 27.6067 96.0235 25.6387 96.1328 23.78C96.3515 21.812 96.4608 19.7347 96.4608 17.548L100.561 17.22C101.763 17.22 102.419 17.876 102.529 19.188C102.747 20.3907 102.857 21.3747 102.857 22.14H104.989C105.207 20.7187 105.699 19.188 106.465 17.548C107.339 15.7987 108.542 14.6507 110.073 14.104L109.909 13.612L108.433 14.104C107.339 13.5574 106.519 12.792 105.973 11.808C105.535 10.7147 105.317 9.56668 105.317 8.36401C105.317 7.81735 105.426 7.27068 105.645 6.72401C105.863 6.17735 105.973 5.63068 105.973 5.08402ZM119.093 53.956C120.951 53.956 122.755 54.0654 124.505 54.284C126.363 54.3933 128.222 54.448 130.081 54.448H131.557L138.117 54.284C134.946 53.8467 131.775 53.6827 128.605 53.792C125.434 53.9013 122.263 53.7374 119.093 53.3V53.956ZM134.837 0.98401C131.229 0.546676 127.621 0.218677 124.013 1.28746e-05C129.698 0.218677 135.438 0.656011 141.233 1.31202C142.654 1.42135 144.021 1.53068 145.333 1.64001C141.725 1.64001 138.226 1.42134 134.837 0.98401ZM114.337 16.4C114.993 16.1813 116.141 16.0173 117.781 15.908C119.53 15.7987 120.787 15.6893 121.553 15.58H117.617C115.867 15.58 114.61 15.6347 113.845 15.744L114.337 16.4ZM125.489 65.272C126.691 65.4907 127.894 65.6547 129.097 65.764C129.971 65.8733 130.846 66.0373 131.721 66.256C130.846 66.0373 130.026 65.8187 129.261 65.6C128.277 65.3814 127.183 65.272 125.981 65.272H125.489ZM146.153 1.64001H145.333C145.551 1.64001 145.825 1.69468 146.153 1.80401V1.64001ZM132.541 66.256C132.322 66.256 132.049 66.256 131.721 66.256C132.049 66.256 132.322 66.256 132.541 66.256ZM268.818 134.316C267.943 134.316 266.85 133.933 265.538 133.168C264.335 132.512 263.734 131.637 263.734 130.544C263.734 128.685 263.952 126.936 264.39 125.296C264.827 123.547 265.155 121.797 265.374 120.048L264.718 120.54L262.75 129.888C261.438 128.029 260.782 126.171 260.782 124.312C260.782 123.875 260.891 123.437 261.11 123C259.032 123.984 256.9 124.804 254.714 125.46C252.636 126.116 250.45 126.444 248.154 126.444C242.25 126.444 236.674 125.679 231.426 124.148C226.287 122.617 221.094 120.704 215.846 118.408L215.026 116.276C209.778 114.089 204.912 111.137 200.43 107.42C196.056 103.703 192.23 99.4934 188.95 94.792C185.779 89.9814 183.264 84.8427 181.406 79.376C179.656 73.9093 178.782 68.3333 178.782 62.648C178.782 57.728 179.438 52.9173 180.75 48.216C182.171 43.5147 184.248 39.1413 186.982 35.096L185.998 34.604C183.374 38.6494 181.242 42.968 179.602 47.56C178.071 52.152 177.306 56.908 177.306 61.828C177.306 66.6387 177.962 71.504 179.274 76.424C180.586 81.2347 182.444 85.8814 184.85 90.364C187.255 94.8467 190.098 99.0014 193.378 102.828C196.658 106.436 200.266 109.552 204.202 112.176C200.375 109.771 196.767 106.819 193.378 103.32C189.988 99.6027 187.036 95.5574 184.522 91.184C182.116 86.7013 180.203 82.0547 178.782 77.244C177.36 72.324 176.65 67.568 176.65 62.976C176.65 54.8853 178.454 47.4507 182.062 40.672C185.779 33.784 190.59 27.88 196.494 22.96C202.398 18.04 209.067 14.2133 216.502 11.48C224.046 8.63735 231.644 7.21602 239.298 7.21602C244.218 7.21602 248.919 7.87202 253.402 9.18401C257.994 10.496 262.586 11.9173 267.178 13.448C266.631 13.776 266.303 14.2133 266.194 14.76C266.194 15.3067 266.139 15.8534 266.03 16.4C265.92 16.8374 265.702 17.22 265.374 17.548C265.155 17.876 264.608 18.04 263.734 18.04C262.312 18.04 260.891 17.8213 259.47 17.384C258.158 16.9467 256.9 16.4547 255.698 15.908L255.206 18.04C255.971 18.2587 256.955 18.696 258.158 19.352C259.47 20.008 260.727 20.7733 261.93 21.648C263.242 22.4133 264.335 23.288 265.21 24.272C266.194 25.256 266.686 26.1853 266.686 27.06C266.686 28.372 266.139 29.192 265.046 29.52C264.062 29.7387 263.078 29.848 262.094 29.848C258.814 29.848 255.534 29.356 252.254 28.372C248.974 27.388 245.694 26.896 242.414 26.896C236.51 26.896 230.824 27.716 225.358 29.356C219.891 30.996 215.08 33.4013 210.926 36.572C206.771 39.6333 203.436 43.46 200.922 48.052C198.407 52.5347 197.15 57.728 197.15 63.632C197.15 69.6453 198.626 75.3307 201.578 80.688C204.53 85.936 208.302 90.5827 212.894 94.628C217.595 98.564 222.843 101.68 228.638 103.976C234.432 106.272 240.172 107.42 245.858 107.42C246.295 107.42 246.951 107.42 247.826 107.42C248.81 107.311 249.848 107.256 250.942 107.256C252.472 107.256 253.839 107.42 255.042 107.748C256.354 107.967 257.064 108.513 257.174 109.388C255.643 109.607 254.058 109.88 252.418 110.208C250.778 110.427 249.192 110.536 247.662 110.536C243.179 110.536 238.532 109.935 233.722 108.732C238.86 110.263 243.999 111.028 249.138 111.028C250.34 111.028 251.598 110.973 252.91 110.864C254.222 110.755 255.479 110.591 256.682 110.372L258.322 112.34C259.306 112.121 260.126 112.012 260.782 112.012C261.438 111.903 262.586 111.52 264.226 110.864C264.226 107.365 264.39 103.976 264.718 100.696C265.046 97.3067 265.21 93.8627 265.21 90.364V88.068C265.21 86.1 265.046 84.0227 264.718 81.836C264.499 79.54 263.734 77.736 262.422 76.424L261.438 76.916C262.531 79.4307 263.242 82.1093 263.57 84.952C263.898 87.7947 264.062 90.6374 264.062 93.48C264.062 98.1814 263.734 102.719 263.078 107.092C263.406 103.484 263.57 99.876 263.57 96.268C263.57 95.5027 263.46 94.0267 263.242 91.84C263.132 89.544 262.914 87.248 262.586 84.952C262.258 82.5467 261.82 80.4147 261.274 78.556C260.836 76.6973 260.344 75.768 259.798 75.768C257.174 75.768 254.495 75.5493 251.762 75.112C249.138 74.6747 246.514 74.456 243.89 74.456H243.07L238.642 74.62C238.642 74.292 238.587 73.9093 238.478 73.472C238.478 73.0347 238.478 72.5974 238.478 72.16C238.478 71.2853 238.642 70.4653 238.97 69.7C239.298 68.9347 240.063 68.552 241.266 68.552L243.234 68.716V66.748C241.703 66.3107 240.118 65.6 238.478 64.616C236.947 63.632 236.182 62.2107 236.182 60.352C236.182 59.04 236.892 58.0013 238.314 57.236C239.735 56.4707 241.375 55.924 243.234 55.596C245.202 55.1587 247.115 54.8853 248.974 54.776C250.832 54.6667 252.254 54.612 253.238 54.612C263.187 54.612 270.676 57.1813 275.706 62.32C280.844 67.4587 283.414 75.0027 283.414 84.952C283.414 91.512 282.867 98.072 281.774 104.632C280.68 111.083 280.134 117.588 280.134 124.148C280.134 125.569 279.915 126.881 279.478 128.084C279.15 129.287 278.111 129.888 276.362 129.888L277.182 118.08L275.706 129.396C275.378 129.396 275.05 129.396 274.722 129.396C274.394 129.505 274.066 129.56 273.738 129.56C273.519 129.56 273.355 129.505 273.246 129.396C273.136 129.396 272.972 129.396 272.754 129.396V131.856C271.879 133.496 270.567 134.316 268.818 134.316ZM261.438 121.36C259.47 121.469 257.502 121.688 255.534 122.016C253.675 122.344 251.762 122.508 249.794 122.508C242.031 122.508 234.323 121.251 226.67 118.736C219.016 116.112 212.019 112.504 205.678 107.912C199.446 103.211 194.088 97.58 189.606 91.02C186.435 86.3187 184.084 81.2347 182.554 75.768C184.084 82 186.654 87.6307 190.262 92.66C194.963 99.4387 200.703 105.124 207.482 109.716C214.26 114.308 221.75 117.752 229.95 120.048C238.15 122.344 246.404 123.492 254.714 123.492H255.698C256.791 123.492 257.83 123.383 258.814 123.164C259.798 122.945 260.672 122.344 261.438 121.36ZM199.774 86.264V86.592C199.774 87.6854 200.484 88.9974 201.906 90.528C203.327 92.0587 204.967 93.5894 206.826 95.12C208.684 96.5414 210.488 97.908 212.238 99.22C214.096 100.423 215.463 101.243 216.338 101.68C215.354 100.915 214.042 99.9307 212.402 98.728C210.871 97.5254 209.286 96.2134 207.646 94.792C206.006 93.3707 204.42 91.9494 202.89 90.528C201.468 88.9974 200.43 87.576 199.774 86.264ZM266.358 111.192C266.576 108.677 266.904 106.272 267.342 103.976C267.779 101.571 267.998 99.1107 267.998 96.596C267.998 95.0654 267.943 93.5894 267.834 92.168C267.724 90.7467 267.506 89.2707 267.178 87.74C267.178 91.676 267.123 95.612 267.014 99.548C266.904 103.484 266.576 107.365 266.03 111.192H266.358ZM280.298 91.84C278.986 95.12 278.384 98.3454 278.494 101.516C278.603 104.468 278.439 107.42 278.002 110.372C278.548 107.42 278.986 104.413 279.314 101.352C279.751 98.1814 280.079 95.0107 280.298 91.84ZM181.57 71.012C181.898 72.652 182.226 74.2373 182.554 75.768C182.226 74.2373 181.898 72.652 181.57 71.012ZM181.406 69.208C181.515 69.864 181.57 70.4654 181.57 71.012C181.46 70.4654 181.406 69.864 181.406 69.208Z" fill="#F0BF22"/>
</svg>
