<svg width="20" height="20" viewBox="0 0 20 20" fill="none" xmlns="http://www.w3.org/2000/svg">
<g clip-path="url(#clip0_2_24)">
<path d="M12.1133 18.0717C12.1449 18.1506 12.2 18.2179 12.271 18.2646C12.342 18.3113 12.4256 18.3352 12.5106 18.333C12.5956 18.3309 12.6779 18.3027 12.7464 18.2524C12.815 18.2021 12.8665 18.1321 12.8941 18.0517L18.3108 2.21833C18.3374 2.14449 18.3425 2.06459 18.3254 1.98796C18.3083 1.91134 18.2698 1.84116 18.2143 1.78565C18.1588 1.73013 18.0886 1.69158 18.012 1.67449C17.9353 1.65741 17.8554 1.6625 17.7816 1.68917L1.94825 7.10583C1.86783 7.13341 1.79777 7.18493 1.74748 7.25348C1.69718 7.32202 1.66906 7.40431 1.66688 7.4893C1.66471 7.57429 1.68858 7.65791 1.7353 7.72894C1.78202 7.79997 1.84935 7.85501 1.92825 7.88667L8.53659 10.5367C8.74549 10.6203 8.9353 10.7454 9.09456 10.9044C9.25382 11.0633 9.37924 11.2529 9.46325 11.4617L12.1133 18.0717Z" stroke="white" stroke-width="1.66667" stroke-linecap="round" stroke-linejoin="round"/>
<path d="M18.2116 1.78917L9.09497 10.905" stroke="white" stroke-width="1.66667" stroke-linecap="round" stroke-linejoin="round"/>
</g>
<defs>
<clipPath id="clip0_2_24">
<rect width="20" height="20" fill="white"/>
</clipPath>
</defs>
</svg>
